<mxfile host="65bd71144e">
    <diagram id="EP5AY-gkX6GOvuUrK65X" name="페이지-1">
        <mxGraphModel dx="912" dy="583" grid="0" gridSize="10" guides="1" tooltips="1" connect="1" arrows="1" fold="1" page="1" pageScale="1" pageWidth="827" pageHeight="1169" background="none" math="0" shadow="0">
            <root>
                <mxCell id="0"/>
                <mxCell id="1" parent="0"/>
                <mxCell id="3" value="상속관계" style="ellipse;whiteSpace=wrap;html=1;aspect=fixed;fillColor=#60a917;fontColor=#ffffff;strokeColor=#2D7600;rounded=1;" vertex="1" parent="1">
                    <mxGeometry x="170" y="40" width="70" height="70" as="geometry"/>
                </mxCell>
                <mxCell id="12" value="" style="edgeStyle=none;html=1;" edge="1" parent="1" source="6" target="7">
                    <mxGeometry relative="1" as="geometry"/>
                </mxCell>
                <mxCell id="6" value="상급 계산기" style="rounded=1;whiteSpace=wrap;html=1;" vertex="1" parent="1">
                    <mxGeometry x="240" y="280" width="120" height="60" as="geometry"/>
                </mxCell>
                <mxCell id="13" style="edgeStyle=none;html=1;entryX=0.5;entryY=1;entryDx=0;entryDy=0;" edge="1" parent="1" source="7" target="8">
                    <mxGeometry relative="1" as="geometry"/>
                </mxCell>
                <mxCell id="7" value="중급 계산기" style="rounded=1;whiteSpace=wrap;html=1;" vertex="1" parent="1">
                    <mxGeometry x="240" y="160" width="120" height="60" as="geometry"/>
                </mxCell>
                <mxCell id="8" value="기본 계산기&lt;br&gt;(최상위 클래스)" style="rounded=1;whiteSpace=wrap;html=1;" vertex="1" parent="1">
                    <mxGeometry x="330" y="40" width="120" height="60" as="geometry"/>
                </mxCell>
                <mxCell id="14" style="edgeStyle=none;html=1;entryX=0.5;entryY=1;entryDx=0;entryDy=0;" edge="1" parent="1" source="9" target="8">
                    <mxGeometry relative="1" as="geometry"/>
                </mxCell>
                <mxCell id="9" value="삼각 계산기" style="rounded=1;whiteSpace=wrap;html=1;" vertex="1" parent="1">
                    <mxGeometry x="420" y="160" width="120" height="60" as="geometry"/>
                </mxCell>
                <mxCell id="15" value="사칙 연산" style="text;html=1;strokeColor=none;fillColor=none;align=center;verticalAlign=middle;whiteSpace=wrap;rounded=1;" vertex="1" parent="1">
                    <mxGeometry x="454" y="55" width="60" height="30" as="geometry"/>
                </mxCell>
                <mxCell id="16" value="1. 사칙 연산&lt;br&gt;&lt;br&gt;2. 제곱, 제곱근, 나머지" style="text;html=1;strokeColor=none;fillColor=none;align=left;verticalAlign=middle;whiteSpace=wrap;rounded=1;" vertex="1" parent="1">
                    <mxGeometry x="80" y="160" width="140" height="60" as="geometry"/>
                </mxCell>
                <mxCell id="18" value="1. 사칙 연산&lt;br&gt;&lt;br&gt;2. 제곱, 제곱근, 나머지&lt;br&gt;&lt;br&gt;3. 팩토리얼, 소수, 랜덤 추출" style="text;html=1;strokeColor=none;fillColor=none;align=left;verticalAlign=middle;whiteSpace=wrap;rounded=1;" vertex="1" parent="1">
                    <mxGeometry x="80" y="280" width="160" height="110" as="geometry"/>
                </mxCell>
                <mxCell id="19" value="1. 사칙 연산&lt;br&gt;&lt;br&gt;2. 사인, 코사인, 탄젠트" style="text;html=1;strokeColor=none;fillColor=none;align=left;verticalAlign=middle;whiteSpace=wrap;rounded=1;" vertex="1" parent="1">
                    <mxGeometry x="550" y="160" width="140" height="60" as="geometry"/>
                </mxCell>
            </root>
        </mxGraphModel>
    </diagram>
</mxfile>